<?xml version='1.0' encoding='utf-8'?>
<svg xmlns="http://www.w3.org/2000/svg" version="1.1" id="Layer_1" x="0px" y="0px" viewBox="0 0 2583.12 457.47" enable-background="new 0 0 2583.12 457.47"> <g> <g> <path d="M1134.137,228.723c0,22.719-32.098,27.468-38.852,5.966h-861.52c50.641,75.174,7.159,88.348,39.783,115.84h-32.647 c-9.737,29.354-9.785,61.094,0,90.567c-5.608,7.684-16.92,7.613-22.481,0c8.735-29.64,8.711-61.046,0-90.567h-32.647 c35.153-29.688-9.164-51.5,39.234-115.84c-1.002,0-1.933-0.191-2.959-0.74c-73.742,48.899-86.892,6.3-114.193,38.685v-32.671 c-29.354-9.737-61.07-9.785-90.567,0c-7.685-5.608-7.589-16.896,0-22.457c29.592,8.711,60.998,8.711,90.567,0v-32.671 c29.521,34.962,51.262-8.615,114.718,38.398c1.145-0.477,1.861-0.477,2.983-0.477c-50.641-75.174-7.159-88.324-39.783-115.816 h32.647c9.737-29.378,9.785-61.094,0-90.567c5.608-7.708,16.92-7.589,22.481,0c-8.735,29.64-8.711,61.046,0,90.567h32.647 c-35.153,29.664,9.164,51.5-39.234,115.816h860.971C1102.039,201.278,1134.137,206.004,1134.137,228.723z"/> <path d="M328.361,151.672c403.816,77.761,609.759,54.188,734.183,54.188c17.134,0,31.024-13.89,31.024-31.024 s-13.89-31.024-31.024-31.024c-20.991,0-35.999,20.481-29.517,40.558c-222.135,20.225-453.179,5.148-678.102-50.072 c11.952-20.576-2.88-46.568-26.821-46.568c-26.059,0-42.605,31.701-21.264,52.922C313.61,147.388,319.217,149.911,328.361,151.672 z"/> <path d="M1050.126,251.407c-43.802,0.83-344.478-22.243-698.52,49.849c-19.547,3.98-44.946,4.327-52.787,26.923 c-6.364,18.339,5.899,41.554,29.283,41.554c23.895,0,38.8-25.946,26.821-46.568c212.869-52.261,443.438-71.438,678.102-50.072 c-6.488,20.096,8.543,40.558,29.517,40.558c17.134,0,31.024-13.89,31.024-31.024c0-10.469-5.447-20.437-14.248-26.105 C1070.684,250.959,1059.986,251.22,1050.126,251.407z"/> </g> <g> <path d="M1448.983,228.723c0,22.719,32.098,27.468,38.852,5.966h861.52c-50.641,75.174-7.159,88.348-39.783,115.84h32.647 c9.737,29.354,9.785,61.094,0,90.567c5.608,7.684,16.92,7.613,22.481,0c-8.735-29.64-8.711-61.046,0-90.567h32.647 c-35.153-29.688,9.164-51.5-39.234-115.84c1.002,0,1.933-0.191,2.959-0.74c73.742,48.899,86.892,6.3,114.193,38.685v-32.671 c29.354-9.737,61.07-9.785,90.567,0c7.685-5.608,7.589-16.896,0-22.457c-29.592,8.711-60.998,8.711-90.567,0v-32.671 c-29.521,34.962-51.262-8.615-114.718,38.398c-1.146-0.477-1.861-0.477-2.983-0.477c50.641-75.174,7.159-88.324,39.783-115.816 H2364.7c-9.737-29.378-9.785-61.094,0-90.567c-5.608-7.708-16.92-7.589-22.481,0c8.735,29.64,8.711,61.046,0,90.567h-32.647 c35.153,29.664-9.164,51.5,39.234,115.816h-860.971C1481.081,201.278,1448.983,206.004,1448.983,228.723z"/> <path d="M2254.759,151.672C1850.943,229.433,1645,205.86,1520.577,205.86c-17.134,0-31.024-13.89-31.024-31.024 s13.89-31.024,31.024-31.024c20.991,0,35.999,20.481,29.517,40.558c222.135,20.225,453.179,5.148,678.102-50.072 c-11.952-20.576,2.88-46.568,26.821-46.568c26.055,0,42.608,31.698,21.264,52.922 C2269.511,147.386,2263.909,149.91,2254.759,151.672z"/> <path d="M1532.993,251.407c43.802,0.83,344.479-22.243,698.52,49.849c19.547,3.98,44.946,4.327,52.787,26.923 c6.365,18.34-5.899,41.554-29.283,41.554c-23.896,0-38.8-25.946-26.821-46.568c-212.869-52.261-443.438-71.438-678.102-50.072 c6.488,20.096-8.543,40.558-29.517,40.558c-17.134,0-31.024-13.89-31.024-31.024c0-10.469,5.447-20.437,14.248-26.105 C1512.435,250.96,1523.133,251.22,1532.993,251.407z"/> </g> <path d="M1315.259,235.614l72.732-2.905l-72.732-2.905c34.929-10.42,67.384-15.924,96.99-15.765l19.191-26.779l-31.266-10.385 c-23.858,17.53-53.351,32.154-87.733,44.255l57.134-45.101l-60.549,40.401c22.133-28.96,45.155-52.49,69.2-69.764l-0.214-32.945 l-31.399,9.977c-8.998,28.206-24.262,57.372-44.966,87.371l19.713-70.07l-25.238,68.275c0.884-36.439,5.679-69.007,14.978-97.115 l-19.538-26.527l-19.538,26.527c9.3,28.107,14.094,60.675,14.978,97.115l-25.238-68.275l19.713,70.07 c-20.703-30-35.967-59.166-44.965-87.371l-31.399-9.977l-0.215,32.945c24.045,17.273,47.066,40.803,69.2,69.764l-60.549-40.401 l57.134,45.101c-34.382-12.101-63.875-26.725-87.733-44.255l-31.266,10.385l19.192,26.779c29.605-0.159,62.061,5.345,96.989,15.765 l-72.732,2.905l72.732,2.905c-34.929,10.42-67.384,15.924-96.989,15.765l-19.192,26.779l31.266,10.385 c23.859-17.53,53.351-32.154,87.733-44.255l-57.134,45.101l60.549-40.401c-22.134,28.96-45.155,52.49-69.2,69.764l0.214,32.945 l31.4-9.977c8.998-28.205,24.262-57.371,44.965-87.371l-19.713,70.07L1287,256.145c-0.884,36.439-5.678,69.007-14.978,97.115 l19.538,26.527l19.538-26.527c-9.299-28.108-14.094-60.676-14.978-97.115l25.238,68.275l-19.713-70.07 c20.703,29.999,35.967,59.166,44.966,87.371l31.399,9.977l0.215-32.945c-24.045-17.273-47.067-40.803-69.2-69.764l60.549,40.401 l-57.135-45.101c34.383,12.101,63.875,26.725,87.733,44.255l31.266-10.385l-19.191-26.779 C1382.643,251.537,1350.188,246.033,1315.259,235.614z M1291.56,247.632c-8.242,0-14.924-6.682-14.924-14.924 s6.682-14.924,14.924-14.924s14.923,6.682,14.923,14.924S1299.802,247.632,1291.56,247.632z"/> </g> </svg>