<?xml version="1.0" encoding="UTF-8"?>
<svg enable-background="new 0 0 1107.615 1792.068" version="1.1" viewBox="0 0 1107.615 1792.068" xmlns="http://www.w3.org/2000/svg">
 <path d="m543.8 98.703c9.089-0.809 18.15-1.942 27.244-2.67 1.18 13.177 1.57 26.44 3.488 39.546 34.576 214.34 6.564 155.89 182.48 308.73 33.969 29.739 47.381 40.95 103.23 101.92 5.806 7.6 7.438 17.679 6.691 27.025-8.012 208.2-84.393 318.75-94.543 369.01-5.056 24.306-5.242 43.476-10.974 80.319-49.883 330.36-53.344 322.99-40.345 346.59 3.486 5.727 1.954 11.597-4.764 43.043 1.071 0.628 2.099 1.337 3.069 2.137 99.568-72.938 75.612-53.991 82.618-61.165 29.026-33.767 75.291-37.771 113.22-55.221 26.615-11.621 57.873 5.105 76.655 27.911 9.052 11.353 17.783 26.203 12.982 57.915-2.202 14.408-15.353 59.423-16.732 60.389-1.609 1.099-3.545 1.566-5.354 2.241-1.541 11.835 4.381 9.976-15.985 43.462-57.603 92.46-152.31 163.69-170.8 174.73-79.849 49.242-212.63 15.771-317.02 26.844-29.686 2.702-126.12 30.92-247.32-95.057-80.983-84.048-114.29-163.04-129.15-242.9-5.463-31.405 12.055-53.783 38.375-71.301 70.713-47.23 206.27 106.53 229.33 120.26 53.081-76.444-31.791-307.48-34.449-424.1 0.449-102.7-51.162-120.09-84.626-263.3-41.008-175.03-9.318-178.67 26.469-212.71 15.232-14.273 15.258-17.512 34.273-31.874 1.002-0.777 68.226-59.232 70.145-61.636 31.316-34.178 27.66-14.888 79.115-60.342 46.688-40.482 42.708-72.96 46.346-90.769-1e-3 0 24.945-97.839 36.328-159.01m-197.5 460.02c-43.082 47.71-1.892 68.991 12.858 128.71 2.848 10.939 5.378 39.705 22.709 69.674 4.93 9.081 3.007 5.115 4.511 15.48 3.921 2.379 8.361 4.026 11.721 7.248 71.758 85.533 60.928 84.973 85.159 77.697 13.119-3.456-9.314-77.875-16.051-88.59-15.741-26.444-21.877 2.971-44.314-60.86-5.725-19.37 0.759-35.023-2.594-52.951-10.877-66.745 41.48-117.39 70.054-132.73 19.109-10.263 40.532-12.296 64.372-3.227 9.63 3.833 18.305-1.147 28.539 0.971 18.189 3.267 66.793 49.887 78.225 110.9 3.831 21.957 8.633 44.1 7.11 66.519-0.854 12.174-5.434 34.734-14.819 42.43-18.679 15.378-30.016 11.495-41.011 106.91-3.055 18.275 19.83 19.66 29.766 15.647 5.838-2.211 5.806 0.89 74.732-95.7 21.418-29.884 17.618-36.242 49.159-146.97 2.537-8.94 8.571-24.868-2.484-40.217-113.78-156.24-184.75-223.09-212.28-250.9-56.239 58.42 55.428-66.944-205.37 229.96z"/>
</svg>
