<?xml version="1.0" encoding="UTF-8"?>
<svg viewBox="0 0 793.7 1122.5" xmlns="http://www.w3.org/2000/svg">
 <path d="m228.97 1002.5c8.9925-2.0106 31.228-11.132 51.928-21.303 19.909-9.7826 40.928-19.948 46.706-22.59 5.7795-2.642 10.489-5.8564 10.466-7.1431-0.022461-1.2867-3.8361-21.289-8.4738-44.449l-8.4323-42.109 7.7295-12.231c10.474-16.576 29.244-38.202 31.84-36.685 1.1597 0.67865 2.1342 5.6459 2.1634 11.038 0.077454 14.162 8.2257 46.949 17.008 68.439 31.649 77.435 105.7 113.51 179.45 87.404 29.074-10.291 53.359-33.355 69.132-65.653 18.057-36.976 23.717-79.456 16.321-122.5-3.7272-21.69-17.375-53.674-33.79-79.187l-13.319-20.702 8.5266-17.899c20.862-43.792 36.368-95.91 41.023-137.89 2.5776-23.246 9.244-37.034 32.495-67.206 8.905-11.555 18.024-26.197 20.264-32.538 7.5173-21.276 4.8375-56.488-8.6995-114.3-4.97-21.23-5.0789-23.459-1.4909-30.578 6.3049-12.508 10.166-41.795 8.6142-65.351-1.5504-23.55-6.4474-39.532-14.643-47.785-4.9913-5.026-5.1227-6.1854-2.334-20.506 3.1884-16.371 1.9804-25.637-4.2201-32.376-2.8864-3.137-3.945-9.3422-3.9944-23.394-0.080811-23.066-5.4775-32.522-21.082-36.946-13.353-3.785-21.798-0.017494-38.052 16.975-7.2142 7.5419-13.963 13.713-14.996 13.713-1.034 0-4.0685-2.6318-6.7427-5.8485-10.204-12.272-33.614-4.7567-57.762 18.545-18.57 17.918-43.346 38.475-75.41 62.57-26.441 19.869-37.092 30.448-44.519 44.223-6.4586 11.978-11.031 13.636-17.187 6.2317-9.2496-11.126-32.023-17.313-39.094-10.622-1.6324 1.544-2.9672 5.8528-2.9672 9.575 0 14.174-10.572 55.217-19.918 77.327-5.3562 12.67-17.519 36.038-27.029 51.929-32.056 53.565-38.788 71.34-41.963 110.81-1.3045 16.22-4.576 36.325-7.2704 44.679-9.0296 28.001-15.093 53.312-21.404 89.352-3.4466 19.684-7.313 39.523-8.5928 44.088-2.581 9.2078-11.696 18.351-24.297 24.37-7.9271 3.7873-8.814 3.7477-20.24-0.90265-15.387-6.2627-33.285-6.2166-51.275 0.13226-7.7868 2.7476-21.946 7.4848-31.466 10.527-9.5202 3.0424-22.026 7.1934-27.792 9.2245l-10.481 3.6929 8.7444 8.5892c11.201 11.002 32.897 41.724 43.1 61.03 24.979 47.266 46.327 114.12 70.365 220.36 2.215 9.7908 5.3776 19.411 7.0267 21.379 4.5569 5.4335 18.563 6.4044 36.037 2.4979zm238.72-134.14c-23.508-11.203-49.625-35.838-59.799-56.403-12.623-25.519-12.388-26.434 10.591-41.146 64.696-41.418 118.62-124.02 137.25-210.23 2.7561-12.755 6.7247-28.817 8.8185-35.694 3.606-11.84 4.1617-12.422 10.471-10.978 3.6644 0.83887 12.487 5.1492 19.607 9.5787 7.1188 4.4294 13.517 8.0536 14.217 8.0536 3.2097 0 0.62756-7.068-6.4284-17.594l-7.7037-11.492 10.392-19.963c5.7166-10.98 15.304-28.075 21.307-37.989 11.141-18.404 18.325-38.989 18.325-52.51 0-13.905-4.3638-10.322-11.135 9.1401-9.5482 27.445-48.041 95.27-54.083 95.297-6.3273 0.02771-4.3358-8.6407 7.3815-32.117 12.029-24.102 70.373-173.09 73.892-188.69 2.6382-11.698 5.7896-3.7675 11.067 27.847 2.7898 16.716 6.6506 37.235 8.5805 45.598 6.3576 27.564 9.0543 58.567 6.6462 76.388-1.9119 14.138-3.8002 18.673-12.175 29.243-25.654 32.375-34.348 52.369-38.981 89.65-1.922 15.473-5.7728 36.029-8.557 45.679-12.184 42.236-40.42 102.19-57.297 121.66-17.231 19.875-22.424 31.214-23.724 51.789-1.0306 16.329-0.51416 18.941 5.9737 30.219 12.714 22.1 8.3279 53.894-9.72 70.465-11.946 10.968-20.418 13.596-41.534 12.886-12.977-0.43671-19.815-2.2147-33.382-8.6805zm-158.25-48.024c-11.338-37.304-44.12-89.77-76.33-122.16-10.244-10.303-18.626-19.331-18.626-20.062 0-0.7312 5.0441-4.1265 11.21-7.545 13.144-7.2877 18.462-15.722 18.462-29.282 0-12.028 8.3144-58.296 14.467-80.501 2.4946-9.0068 8.7444-26.307 13.887-38.445 8.7264-20.597 9.4337-24.108 10.6-52.637 1.6964-41.484 8.0001-57.869 45.884-119.26 6.2835-10.183 14.678-27.026 18.655-37.431 8.21-21.475 17.671-62.065 17.671-75.811 0-16.28 9.5561-17.617 26.948-3.7721 9.6426 7.6764 9.5415 8.8554-3.6206 42.42-10.092 25.736-32.194 68.598-47.841 92.78-5.7121 8.8268-9.958 16.453-9.436 16.946 2.3834 2.2551 22.367-17.107 32.31-31.306 18.457-26.356 27.95-44.816 38.762-75.38 18.375-51.936 27.383-63.414 86.52-110.24 15.636-12.381 39.822-32.646 53.746-45.034 13.923-12.387 27.054-22.522 29.177-22.522 6.5125 0 18.452 6.9305 18.452 10.71 0 9.5936-28.983 44.006-69.792 82.866-48.234 45.93-61.825 64.273-82.115 110.82-12.654 29.03-26.587 52.222-42.428 70.621-11.339 13.171-10.212 16.141 3.5678 9.3997 12.991-6.3559 27.668-24.539 40.356-49.998 43.824-87.929 51.208-98.485 98.427-140.71 31.037-27.755 37.842-35.298 58.391-64.73 25.552-36.598 37.125-47.696 49.736-47.696 10.612 0 15.62 7.3625 17.361 25.527 1.3337 13.917 1.3012 14.005-5.7907 15.452-26.77 5.4626-34.815 12.146-56.334 46.803-13.313 21.438-26.568 38.339-54.422 69.389-37.085 41.337-46.009 57.665-69.391 126.95-14.56 43.142-14.897 44.39-11.439 42.368 4.9958-2.9216 19.201-30.311 34.044-65.642 17.9-42.61 31.152-62.859 63.537-97.086 23.871-25.23 32.217-36.168 52.184-68.395 15.197-24.529 23.306-32.552 37.327-36.93 12.959-4.046 15.15-1.051 11.592 15.843-4.2616 20.232-6.6754 56.731-3.7519 56.731 1.3539 0 4.6804-5.5269 7.3938-12.282 2.7123-6.7551 6.452-12.282 8.3088-12.282 6.0366 0 9.9108 23.49 8.8735 53.807-1.0643 31.108-2.718 37.953-8.1415 33.695-1.8816-1.4771-3.4208-3.9726-3.4208-5.5457 0-1.573-2.2251-4.7655-4.9453-7.0944-3.405-2.9158-4.9498-7.2173-4.9588-13.814-0.020203-13.638-4.3705-26.677-9.8233-29.437-7.6745-3.8858-18.571-2.7062-27.506 2.9775-12.445 7.9158-44.656 62.188-62.992 106.13-5.2866 12.671-18.812 40.759-30.057 62.418s-20.445 40.37-20.445 41.579c0 4.7134 11.886-5.5467 23.931-20.656 15.82-19.848 28.098-42.959 36.414-68.549 3.5431-10.905 11.166-27.788 16.94-37.518 5.7739-9.7298 17.173-28.926 25.334-42.657 15.157-25.506 20.609-29.828 25.876-20.516 4.1146 7.2739 3.1749 13.867-8.5917 60.275-9.244 36.457-15.851 55.19-38.61 109.49-36.762 87.697-45.272 110.58-56.785 152.67-10.705 39.137-14.965 50.502-28.48 75.961-27.224 51.288-72.167 100.48-114.15 124.96-10.51 6.1265-23.742 14.661-29.404 18.965-9.958 7.5698-36.51 38.229-42.662 49.261-1.6582 2.9733-4.2268 5.0237-5.7076 4.5566-1.4808-0.46698-5.2361-9.2161-8.3436-19.442z" fill="#030303"/>
</svg>
